# xmcd
#
# Track frame offsets:
#	150
#	18017
#	36256
#	52258
#	68483
#	88175
#	106911
#	127665
#	153118
#	171710
#
# Disc length: 2607 seconds
#
# Revision: 1
# Processed by: cddbd v1.5.2PL0 Copyright (c) Steve Scherf et al.
# Submitted via: EasyCDDAExtractor 15.3.0.1
#
DISCID=790a2d0a
DTITLE=Maria Conchita Alonso - Mirame
DYEAR=1987
DGENRE=Latin
TTITLE0=Ganar O Perder
TTITLE1=Te Amo, Te Amo
TTITLE2=Tu, Mi Hombre
TTITLE3=Lluvia De Amor
TTITLE4=Todo Lo Que Yo Pretendo
TTITLE5=Soy Tu Mujer
TTITLE6=Hielo
TTITLE7=Otra Mentira Mas
TTITLE8=Y Es Que Llegaste Tu
TTITLE9=Mirame
EXTD=YEAR: 2003
EXTT0=
EXTT1=
EXTT2=
EXTT3=
EXTT4=
EXTT5=
EXTT6=
EXTT7=
EXTT8=
EXTT9=
PLAYORDER=
